# Blender 4.1.1
# www.blender.org
mtllib Background.mtl
o Sphere
v -1.867286 -15.800227 5.439218
v -3.509349 -12.880464 10.222385
v -4.728133 -8.407125 13.772582
v -5.376635 -2.919764 15.661602
v -5.376635 2.919764 15.661602
v -4.728133 8.407125 13.772582
v -3.509349 12.880464 10.222385
v -1.867286 15.800227 5.439218
v -3.532222 -15.800227 4.538200
v -6.638406 -12.880464 8.529025
v -8.943900 -8.407125 11.491123
v -10.170628 -2.919764 13.067223
v -10.170628 2.919764 13.067223
v -8.943900 8.407125 11.491123
v -6.638406 12.880464 8.529025
v -3.532222 15.800227 4.538200
v -4.814388 -15.800227 3.145397
v -9.048089 -12.880464 5.911411
v -12.190455 -8.407125 7.964423
v -13.862475 -2.919764 9.056807
v -13.862475 2.919764 9.056807
v -12.190455 8.407125 7.964423
v -9.048089 12.880464 5.911411
v -4.814388 15.800227 3.145397
v -5.574839 -15.800227 1.411742
v -10.477270 -12.880464 2.653205
v -14.115987 -8.407125 3.574655
v -16.052109 -2.919764 4.064945
v -16.052109 2.919764 4.064945
v -14.115987 8.407125 3.574655
v -10.477270 12.880464 2.653205
v -5.574839 15.800227 1.411742
v -5.731171 -15.800227 -0.474898
v -10.771077 -12.880464 -0.892517
v -14.511831 -8.407125 -1.202484
v -16.502245 -2.919764 -1.367415
v -16.502245 2.919764 -1.367415
v -14.511831 8.407125 -1.202484
v -10.771077 12.880464 -0.892517
v -5.731171 15.800227 -0.474898
v -5.266441 -15.800227 -2.310074
v -9.897672 -12.880464 -4.341521
v -13.335094 -8.407125 -5.849314
v -15.164109 -2.919764 -6.651595
v -15.164109 2.919764 -6.651595
v -13.335094 8.407125 -5.849314
v -9.897672 12.880464 -4.341521
v -5.266441 15.800227 -2.310074
v -4.231010 -15.800227 -3.894919
v -7.951699 -12.880464 -7.320054
v -10.713293 -8.407125 -9.862280
v -12.182707 -2.919764 -11.214971
v -12.182707 2.919764 -11.214971
v -10.713293 8.407125 -9.862280
v -7.951699 12.880464 -7.320054
v -4.231010 15.800227 -3.894919
v -2.737084 -15.800227 -5.057688
v -5.144036 -12.880464 -9.505345
v -6.930541 -8.407125 -12.806514
v -7.881119 -2.919764 -14.563030
v -7.881119 2.919764 -14.563030
v -6.930541 8.407125 -12.806514
v -5.144036 12.880464 -9.505345
v -2.737084 15.800227 -5.057688
v -0.946553 -15.800227 -5.672378
v -1.778938 -12.880464 -10.660584
v -2.396757 -8.407125 -14.362964
v -2.725490 -2.919764 -16.332960
v -2.725490 2.919764 -16.332960
v -2.396757 8.407125 -14.362964
v -1.778938 12.880464 -10.660584
v -0.946553 15.800227 -5.672378
v 0.946552 -15.800227 -5.672378
v 1.778936 -12.880464 -10.660584
v 2.396753 -8.407125 -14.362964
v 2.725488 -2.919764 -16.332960
v 2.725488 2.919764 -16.332960
v 2.396753 8.407125 -14.362964
v 1.778936 12.880464 -10.660584
v 0.946552 15.800227 -5.672378
v 2.737083 -15.800227 -5.057688
v 5.144035 -12.880464 -9.505345
v 6.930537 -8.407125 -12.806515
v 7.881117 -2.919764 -14.563031
v 7.881117 2.919764 -14.563031
v 6.930537 8.407125 -12.806515
v 5.144035 12.880464 -9.505345
v 2.737083 15.800227 -5.057688
v 4.231009 -15.800227 -3.894919
v 7.951697 -12.880464 -7.320054
v 10.713289 -8.407125 -9.862281
v 12.182706 -2.919764 -11.214972
v 12.182706 2.919764 -11.214972
v 10.713289 8.407125 -9.862281
v 7.951697 12.880464 -7.320054
v 4.231009 15.800227 -3.894919
v 5.266440 -15.800227 -2.310075
v 9.897670 -12.880464 -4.341521
v 13.335091 -8.407125 -5.849316
v 15.164108 -2.919764 -6.651596
v 15.164108 2.919764 -6.651596
v 13.335091 8.407125 -5.849316
v 9.897670 12.880464 -4.341521
v 5.266440 15.800227 -2.310075
v 0.000000 -16.814251 0.000000
v 5.731169 -15.800227 -0.474899
v 10.771076 -12.880464 -0.892518
v 14.511827 -8.407125 -1.202487
v 16.502243 -2.919764 -1.367416
v 16.502243 2.919764 -1.367416
v 14.511827 8.407125 -1.202487
v 10.771076 12.880464 -0.892518
v 5.731169 15.800227 -0.474899
v 5.574838 -15.800227 1.411740
v 10.477270 -12.880464 2.653204
v 14.115984 -8.407125 3.574650
v 16.052105 -2.919764 4.064944
v 16.052105 2.919764 4.064944
v 14.115984 8.407125 3.574650
v 10.477270 12.880464 2.653204
v 5.574838 15.800227 1.411740
v 4.814387 -15.800227 3.145395
v 9.048089 -12.880464 5.911410
v 12.190454 -8.407125 7.964418
v 13.862473 -2.919764 9.056805
v 13.862473 2.919764 9.056805
v 12.190454 8.407125 7.964418
v 9.048089 12.880464 5.911410
v 4.814387 15.800227 3.145395
v 3.532222 -15.800227 4.538198
v 6.638407 -12.880464 8.529024
v 8.943900 -8.407125 11.491118
v 10.170626 -2.919764 13.067219
v 10.170626 2.919764 13.067219
v 8.943900 8.407125 11.491118
v 6.638407 12.880464 8.529024
v 3.532222 15.800227 4.538198
v 1.867286 -15.800227 5.439217
v 3.509350 -12.880464 10.222384
v 4.728134 -8.407125 13.772577
v 5.376634 -2.919764 15.661597
v 5.376634 2.919764 15.661597
v 4.728134 8.407125 13.772577
v 3.509350 12.880464 10.222384
v 1.867286 15.800227 5.439217
v 0.000001 -15.800227 5.750812
v 0.000001 -12.880464 10.807992
v 0.000003 -8.407125 14.561563
v 0.000001 -2.919764 16.558798
v 0.000001 2.919764 16.558798
v 0.000003 8.407125 14.561563
v 0.000001 12.880464 10.807992
v 0.000001 15.800227 5.750812
v 0.000000 16.814251 0.000000
vn -0.1646 -0.0000 0.9864
vn -0.0831 -0.8630 0.4983
vn -0.0290 0.9844 0.1736
vn -0.1549 0.3379 0.9283
vn -0.1268 -0.6376 0.7599
vn -0.1268 0.6376 0.7599
vn -0.1549 -0.3379 0.9283
vn -0.0290 -0.9844 0.1736
vn -0.0831 0.8630 0.4983
vn -0.3667 -0.6376 0.6775
vn -0.3667 0.6376 0.6775
vn -0.4480 -0.3379 0.8277
vn -0.0838 -0.9844 0.1548
vn -0.2404 0.8630 0.4443
vn -0.4759 -0.0000 0.8795
vn -0.2404 -0.8630 0.4443
vn -0.0838 0.9844 0.1548
vn -0.4480 0.3379 0.8277
vn -0.1295 -0.9844 0.1192
vn -0.3717 0.8630 0.3421
vn -0.7357 -0.0000 0.6773
vn -0.3717 -0.8630 0.3421
vn -0.1295 0.9844 0.1192
vn -0.6925 0.3379 0.6374
vn -0.5668 -0.6376 0.5218
vn -0.5668 0.6376 0.5218
vn -0.6925 -0.3379 0.6374
vn -0.1612 0.9844 0.0707
vn -0.8619 0.3379 0.3781
vn -0.7055 -0.6376 0.3095
vn -0.7055 0.6376 0.3095
vn -0.8619 -0.3379 0.3781
vn -0.1612 -0.9844 0.0707
vn -0.4626 0.8630 0.2029
vn -0.9158 -0.0000 0.4017
vn -0.4626 -0.8630 0.2029
vn -0.7677 0.6376 0.0636
vn -0.9380 -0.3379 0.0777
vn -0.1754 -0.9844 0.0145
vn -0.5034 0.8630 0.0417
vn -0.9966 -0.0000 0.0826
vn -0.5034 -0.8630 0.0417
vn -0.1754 0.9844 0.0145
vn -0.9380 0.3379 0.0777
vn -0.7677 -0.6376 0.0636
vn -0.9694 -0.0000 -0.2455
vn -0.4897 -0.8630 -0.1240
vn -0.1706 0.9844 -0.0432
vn -0.9124 0.3379 -0.2310
vn -0.7468 -0.6376 -0.1891
vn -0.7468 0.6376 -0.1891
vn -0.9124 -0.3379 -0.2310
vn -0.1706 -0.9844 -0.0432
vn -0.4897 0.8630 -0.1240
vn -0.6449 -0.6376 -0.4214
vn -0.6449 0.6376 -0.4214
vn -0.7879 -0.3379 -0.5148
vn -0.1473 -0.9844 -0.0962
vn -0.4229 0.8630 -0.2763
vn -0.8372 -0.0000 -0.5469
vn -0.4229 -0.8630 -0.2763
vn -0.1473 0.9844 -0.0962
vn -0.7879 0.3379 -0.5148
vn -0.1081 -0.9844 -0.1389
vn -0.3103 0.8630 -0.3986
vn -0.6142 -0.0000 -0.7891
vn -0.3103 -0.8630 -0.3986
vn -0.1081 0.9844 -0.1389
vn -0.5781 0.3379 -0.7427
vn -0.4732 -0.6376 -0.6079
vn -0.4732 0.6376 -0.6079
vn -0.5781 -0.3379 -0.7427
vn -0.3056 0.3379 -0.8902
vn -0.2501 -0.6376 -0.7286
vn -0.2501 0.6376 -0.7286
vn -0.3056 -0.3379 -0.8902
vn -0.0571 -0.9844 -0.1664
vn -0.1640 0.8630 -0.4778
vn -0.3247 -0.0000 -0.9458
vn -0.1640 -0.8630 -0.4778
vn -0.0571 0.9844 -0.1664
vn -0.0000 -0.3379 -0.9412
vn -0.0000 -0.9844 -0.1760
vn -0.0000 0.8630 -0.5052
vn -0.0000 -0.0000 -1.0000
vn -0.0000 -0.8630 -0.5052
vn -0.0000 0.9844 -0.1760
vn -0.0000 0.3379 -0.9412
vn -0.0000 -0.6376 -0.7704
vn -0.0000 0.6376 -0.7704
vn 0.1640 -0.8630 -0.4778
vn 0.0571 0.9844 -0.1664
vn 0.3056 0.3379 -0.8902
vn 0.2501 -0.6376 -0.7286
vn 0.2501 0.6376 -0.7286
vn 0.3056 -0.3379 -0.8902
vn 0.0571 -0.9844 -0.1664
vn 0.1640 0.8630 -0.4778
vn 0.3247 -0.0000 -0.9458
vn 0.4732 0.6376 -0.6079
vn 0.5781 -0.3379 -0.7427
vn 0.1081 -0.9844 -0.1389
vn 0.3103 0.8630 -0.3986
vn 0.6142 -0.0000 -0.7891
vn 0.3103 -0.8630 -0.3986
vn 0.1081 0.9844 -0.1389
vn 0.5781 0.3379 -0.7427
vn 0.4732 -0.6376 -0.6079
vn 0.4229 0.8630 -0.2763
vn 0.8372 -0.0000 -0.5469
vn 0.4229 -0.8630 -0.2763
vn 0.1473 0.9844 -0.0962
vn 0.7879 0.3379 -0.5148
vn 0.6449 -0.6376 -0.4214
vn 0.6449 0.6376 -0.4214
vn 0.7879 -0.3379 -0.5148
vn 0.1473 -0.9844 -0.0962
vn 0.9124 0.3379 -0.2310
vn 0.7468 -0.6376 -0.1891
vn 0.7468 0.6376 -0.1891
vn 0.9124 -0.3379 -0.2310
vn 0.1706 -0.9844 -0.0432
vn 0.4897 0.8630 -0.1240
vn 0.9694 -0.0000 -0.2455
vn 0.4897 -0.8630 -0.1240
vn 0.1706 0.9844 -0.0432
vn 0.9380 -0.3379 0.0777
vn 0.1754 -0.9844 0.0145
vn 0.5034 0.8630 0.0417
vn 0.9966 -0.0000 0.0826
vn 0.5034 -0.8630 0.0417
vn 0.1754 0.9844 0.0145
vn 0.9380 0.3379 0.0777
vn 0.7677 -0.6376 0.0636
vn 0.7677 0.6376 0.0636
vn 0.4626 -0.8630 0.2029
vn 0.1612 0.9844 0.0707
vn 0.8619 0.3379 0.3781
vn 0.7055 -0.6376 0.3095
vn 0.7055 0.6376 0.3095
vn 0.8619 -0.3379 0.3781
vn 0.1612 -0.9844 0.0707
vn 0.4626 0.8630 0.2029
vn 0.9158 -0.0000 0.4017
vn 0.5668 0.6376 0.5218
vn 0.6925 -0.3379 0.6374
vn 0.1295 -0.9844 0.1192
vn 0.3717 0.8630 0.3421
vn 0.7357 -0.0000 0.6773
vn 0.3717 -0.8630 0.3421
vn 0.1295 0.9844 0.1192
vn 0.6925 0.3379 0.6374
vn 0.5668 -0.6376 0.5218
vn 0.4759 -0.0000 0.8795
vn 0.2404 -0.8630 0.4443
vn 0.0838 0.9844 0.1548
vn 0.4480 0.3379 0.8277
vn 0.3667 -0.6376 0.6775
vn 0.3667 0.6376 0.6775
vn 0.4480 -0.3379 0.8277
vn 0.0838 -0.9844 0.1548
vn 0.2404 0.8630 0.4443
vn 0.1268 -0.6376 0.7599
vn 0.1268 0.6376 0.7599
vn 0.1549 -0.3379 0.9283
vn 0.0290 -0.9844 0.1736
vn 0.0831 0.8630 0.4983
vn 0.1646 -0.0000 0.9864
vn 0.0831 -0.8630 0.4983
vn 0.0290 0.9844 0.1736
vn 0.1549 0.3379 0.9283
vt 0.736842 0.555556
vt 0.684210 0.444444
vt 0.736842 0.444444
vt 0.736842 0.777778
vt 0.684211 0.888889
vt 0.684211 0.777778
vt 0.710526 0.000000
vt 0.736842 0.111111
vt 0.684211 0.111111
vt 0.684211 0.333333
vt 0.736842 0.333333
vt 0.684211 0.666667
vt 0.736842 0.666667
vt 0.684211 0.222222
vt 0.736842 0.222222
vt 0.684210 0.555556
vt 0.736842 0.888889
vt 0.710526 1.000000
vt 0.631579 0.666667
vt 0.631579 0.333333
vt 0.631579 0.222222
vt 0.631579 0.555556
vt 0.657895 1.000000
vt 0.631579 0.888889
vt 0.631579 0.111111
vt 0.631579 0.444444
vt 0.631579 0.777778
vt 0.657895 0.000000
vt 0.605263 1.000000
vt 0.578947 0.888889
vt 0.578947 0.111111
vt 0.578947 0.444444
vt 0.578947 0.777778
vt 0.605263 0.000000
vt 0.578947 0.333333
vt 0.578947 0.666667
vt 0.578947 0.222222
vt 0.578947 0.555556
vt 0.552632 0.000000
vt 0.526316 0.111111
vt 0.526316 0.333333
vt 0.526316 0.666667
vt 0.526316 0.222222
vt 0.526316 0.555556
vt 0.552632 1.000000
vt 0.526316 0.888889
vt 0.526316 0.444444
vt 0.526316 0.777778
vt 0.473684 0.222222
vt 0.473684 0.666667
vt 0.473684 0.555556
vt 0.500000 1.000000
vt 0.473684 0.888889
vt 0.473684 0.111111
vt 0.473684 0.444444
vt 0.473684 0.777778
vt 0.500000 0.000000
vt 0.473684 0.333333
vt 0.421053 0.444444
vt 0.421053 0.888889
vt 0.421053 0.777778
vt 0.447368 0.000000
vt 0.421053 0.111111
vt 0.421053 0.333333
vt 0.421053 0.666667
vt 0.421053 0.222222
vt 0.421053 0.555556
vt 0.447368 1.000000
vt 0.368421 0.666667
vt 0.368421 0.222222
vt 0.368421 0.555556
vt 0.394737 1.000000
vt 0.368421 0.888889
vt 0.368421 0.111111
vt 0.368421 0.444444
vt 0.368421 0.777778
vt 0.394737 0.000000
vt 0.368421 0.333333
vt 0.342105 1.000000
vt 0.315789 0.888889
vt 0.315789 0.111111
vt 0.315789 0.444444
vt 0.315789 0.777778
vt 0.342105 0.000000
vt 0.315789 0.333333
vt 0.315789 0.666667
vt 0.315789 0.222222
vt 0.315789 0.555556
vt 0.263158 0.333333
vt 0.263158 0.666667
vt 0.263158 0.222222
vt 0.263158 0.555556
vt 0.289474 1.000000
vt 0.263158 0.888889
vt 0.263158 0.111111
vt 0.263158 0.444444
vt 0.263158 0.777778
vt 0.289474 0.000000
vt 0.210526 0.666667
vt 0.210526 0.555556
vt 0.236842 1.000000
vt 0.210526 0.888889
vt 0.210526 0.222222
vt 0.210526 0.111111
vt 0.210526 0.444444
vt 0.210526 0.777778
vt 0.236842 0.000000
vt 0.210526 0.333333
vt 0.157895 0.777778
vt 0.184211 0.000000
vt 0.157895 0.111111
vt 0.157895 0.333333
vt 0.157895 0.666667
vt 0.157895 0.222222
vt 0.157895 0.555556
vt 0.184211 1.000000
vt 0.157895 0.888889
vt 0.157895 0.444444
vt 0.105263 0.222222
vt 0.105263 0.666667
vt 0.105263 0.555556
vt 0.131579 1.000000
vt 0.105263 0.888889
vt 0.105263 0.111111
vt 0.105263 0.444444
vt 0.105263 0.777778
vt 0.131579 0.000000
vt 0.105263 0.333333
vt 0.052632 0.222222
vt 0.052632 0.111111
vt 0.052632 0.444444
vt 0.052632 0.777778
vt 0.078947 0.000000
vt 0.052632 0.333333
vt 0.052632 0.666667
vt 0.052632 0.555556
vt 0.078947 1.000000
vt 0.052632 0.888889
vt 0.000000 0.333333
vt 0.000000 0.666667
vt 0.000000 0.222222
vt 0.000000 0.555556
vt 0.026316 1.000000
vt 0.000000 0.888889
vt 0.000000 0.111111
vt 0.000000 0.444444
vt 0.000000 0.777778
vt 0.026316 0.000000
vt 1.000000 0.666667
vt 0.947368 0.555556
vt 1.000000 0.555556
vt 1.000000 0.888889
vt 0.973684 1.000000
vt 0.947368 0.888889
vt 1.000000 0.222222
vt 0.947368 0.111111
vt 1.000000 0.111111
vt 0.947368 0.444444
vt 1.000000 0.444444
vt 0.947368 0.777778
vt 1.000000 0.777778
vt 0.973684 0.000000
vt 0.947368 0.333333
vt 1.000000 0.333333
vt 0.947368 0.666667
vt 0.947368 0.222222
vt 0.894737 0.777778
vt 0.921053 0.000000
vt 0.894737 0.111111
vt 0.894737 0.333333
vt 0.894737 0.666667
vt 0.894737 0.222222
vt 0.894737 0.555556
vt 0.921053 1.000000
vt 0.894737 0.888889
vt 0.894737 0.444444
vt 0.842105 0.333333
vt 0.842105 0.222222
vt 0.842105 0.666667
vt 0.842105 0.555556
vt 0.868421 1.000000
vt 0.842105 0.888889
vt 0.842105 0.111111
vt 0.842105 0.444444
vt 0.842105 0.777778
vt 0.868421 0.000000
vt 0.789474 0.444444
vt 0.789474 0.777778
vt 0.815789 0.000000
vt 0.789474 0.111111
vt 0.789474 0.333333
vt 0.789474 0.666667
vt 0.789474 0.222222
vt 0.789474 0.555556
vt 0.815789 1.000000
vt 0.789474 0.888889
vt 0.763158 1.000000
vt 0.763158 0.000000
s 0
f 149/1/1 150/3/1 5/2/1
f 147/4/2 2/6/2 1/5/2
f 154/7/3 8/9/3 153/8/3
f 150/3/4 151/11/4 6/10/4
f 147/4/5 148/13/5 3/12/5
f 151/11/6 152/15/6 7/14/6
f 149/1/7 4/16/7 3/12/7
f 146/17/8 1/5/8 105/18/8
f 152/15/9 153/8/9 8/9/9
f 2/6/10 3/12/10 11/19/10
f 7/14/11 15/21/11 14/20/11
f 3/12/12 4/16/12 12/22/12
f 1/5/13 9/24/13 105/23/13
f 7/14/14 8/9/14 16/25/14
f 4/16/15 5/2/15 13/26/15
f 1/5/16 2/6/16 10/27/16
f 154/28/17 16/25/17 8/9/17
f 5/2/18 6/10/18 14/20/18
f 9/24/19 17/30/19 105/29/19
f 15/21/20 16/25/20 24/31/20
f 12/22/21 13/26/21 21/32/21
f 9/24/22 10/27/22 18/33/22
f 154/34/23 24/31/23 16/25/23
f 13/26/24 14/20/24 22/35/24
f 11/19/25 19/36/25 18/33/25
f 15/21/26 23/37/26 22/35/26
f 11/19/27 12/22/27 20/38/27
f 154/39/28 32/40/28 24/31/28
f 21/32/29 22/35/29 30/41/29
f 18/33/30 19/36/30 27/42/30
f 22/35/31 23/37/31 31/43/31
f 20/38/32 28/44/32 27/42/32
f 17/30/33 25/46/33 105/45/33
f 23/37/34 24/31/34 32/40/34
f 20/38/35 21/32/35 29/47/35
f 17/30/36 18/33/36 26/48/36
f 30/41/37 31/43/37 39/49/37
f 28/44/38 36/51/38 35/50/38
f 25/46/39 33/53/39 105/52/39
f 31/43/40 32/40/40 40/54/40
f 28/44/41 29/47/41 37/55/41
f 26/48/42 34/56/42 33/53/42
f 154/57/43 40/54/43 32/40/43
f 29/47/44 30/41/44 38/58/44
f 26/48/45 27/42/45 35/50/45
f 36/51/46 37/55/46 45/59/46
f 34/56/47 42/61/47 41/60/47
f 154/62/48 48/63/48 40/54/48
f 37/55/49 38/58/49 46/64/49
f 34/56/50 35/50/50 43/65/50
f 39/49/51 47/66/51 46/64/51
f 36/51/52 44/67/52 43/65/52
f 33/53/53 41/60/53 105/68/53
f 39/49/54 40/54/54 48/63/54
f 42/61/55 43/65/55 51/69/55
f 46/64/56 47/66/56 55/70/56
f 44/67/57 52/71/57 51/69/57
f 41/60/58 49/73/58 105/72/58
f 48/63/59 56/74/59 55/70/59
f 44/67/60 45/59/60 53/75/60
f 41/60/61 42/61/61 50/76/61
f 154/77/62 56/74/62 48/63/62
f 45/59/63 46/64/63 54/78/63
f 49/73/64 57/80/64 105/79/64
f 55/70/65 56/74/65 64/81/65
f 52/71/66 53/75/66 61/82/66
f 50/76/67 58/83/67 57/80/67
f 154/84/68 64/81/68 56/74/68
f 53/75/69 54/78/69 62/85/69
f 50/76/70 51/69/70 59/86/70
f 54/78/71 55/70/71 63/87/71
f 51/69/72 52/71/72 60/88/72
f 61/82/73 62/85/73 70/89/73
f 58/83/74 59/86/74 67/90/74
f 63/87/75 71/91/75 70/89/75
f 60/88/76 68/92/76 67/90/76
f 57/80/77 65/94/77 105/93/77
f 63/87/78 64/81/78 72/95/78
f 60/88/79 61/82/79 69/96/79
f 58/83/80 66/97/80 65/94/80
f 154/98/81 72/95/81 64/81/81
f 68/92/82 76/100/82 75/99/82
f 65/94/83 73/102/83 105/101/83
f 72/95/84 80/104/84 79/103/84
f 68/92/85 69/96/85 77/105/85
f 65/94/86 66/97/86 74/106/86
f 154/107/87 80/104/87 72/95/87
f 69/96/88 70/89/88 78/108/88
f 66/97/89 67/90/89 75/99/89
f 71/91/90 79/103/90 78/108/90
f 73/102/91 74/106/91 82/109/91
f 154/110/92 88/111/92 80/104/92
f 77/105/93 78/108/93 86/112/93
f 74/106/94 75/99/94 83/113/94
f 78/108/95 79/103/95 87/114/95
f 76/100/96 84/115/96 83/113/96
f 73/102/97 81/117/97 105/116/97
f 79/103/98 80/104/98 88/111/98
f 76/100/99 77/105/99 85/118/99
f 86/112/100 87/114/100 95/119/100
f 84/115/101 92/121/101 91/120/101
f 81/117/102 89/123/102 105/122/102
f 88/111/103 96/124/103 95/119/103
f 84/115/104 85/118/104 93/125/104
f 81/117/105 82/109/105 90/126/105
f 154/127/106 96/124/106 88/111/106
f 85/118/107 86/112/107 94/128/107
f 82/109/108 83/113/108 91/120/108
f 96/124/109 104/130/109 103/129/109
f 92/121/110 93/125/110 101/131/110
f 89/123/111 90/126/111 98/132/111
f 154/133/112 104/130/112 96/124/112
f 93/125/113 94/128/113 102/134/113
f 90/126/114 91/120/114 99/135/114
f 95/119/115 103/129/115 102/134/115
f 92/121/116 100/136/116 99/135/116
f 89/123/117 97/138/117 105/137/117
f 101/131/118 102/134/118 111/139/118
f 98/132/119 99/135/119 108/140/119
f 102/134/120 103/129/120 112/141/120
f 100/136/121 109/142/121 108/140/121
f 97/138/122 106/144/122 105/143/122
f 104/130/123 113/145/123 112/141/123
f 100/136/124 101/131/124 110/146/124
f 97/138/125 98/132/125 107/147/125
f 154/148/126 113/145/126 104/130/126
f 108/149/127 109/151/127 117/150/127
f 106/152/128 114/154/128 105/153/128
f 112/155/129 113/157/129 121/156/129
f 109/151/130 110/159/130 118/158/130
f 106/152/131 107/161/131 115/160/131
f 154/162/132 121/156/132 113/157/132
f 110/159/133 111/164/133 119/163/133
f 107/161/134 108/149/134 116/165/134
f 112/155/135 120/166/135 119/163/135
f 114/154/136 115/160/136 123/167/136
f 154/168/137 129/169/137 121/156/137
f 118/158/138 119/163/138 127/170/138
f 115/160/139 116/165/139 124/171/139
f 120/166/140 128/172/140 127/170/140
f 117/150/141 125/173/141 124/171/141
f 114/154/142 122/175/142 105/174/142
f 120/166/143 121/156/143 129/169/143
f 117/150/144 118/158/144 126/176/144
f 128/172/145 136/178/145 135/177/145
f 125/173/146 133/180/146 132/179/146
f 122/175/147 130/182/147 105/181/147
f 128/172/148 129/169/148 137/183/148
f 125/173/149 126/176/149 134/184/149
f 122/175/150 123/167/150 131/185/150
f 154/186/151 137/183/151 129/169/151
f 126/176/152 127/170/152 135/177/152
f 123/167/153 124/171/153 132/179/153
f 133/180/154 134/184/154 142/187/154
f 130/182/155 131/185/155 139/188/155
f 154/189/156 145/190/156 137/183/156
f 134/184/157 135/177/157 143/191/157
f 131/185/158 132/179/158 140/192/158
f 136/178/159 144/193/159 143/191/159
f 133/180/160 141/194/160 140/192/160
f 130/182/161 138/196/161 105/195/161
f 137/183/162 145/190/162 144/193/162
f 139/188/163 140/192/163 148/13/163
f 144/193/164 152/15/164 151/11/164
f 141/194/165 149/1/165 148/13/165
f 138/196/166 146/17/166 105/197/166
f 144/193/167 145/190/167 153/8/167
f 141/194/168 142/187/168 150/3/168
f 138/196/169 139/188/169 147/4/169
f 154/198/170 153/8/170 145/190/170
f 142/187/171 143/191/171 151/11/171
f 149/1/1 5/2/1 4/16/1
f 147/4/2 1/5/2 146/17/2
f 150/3/4 6/10/4 5/2/4
f 147/4/5 3/12/5 2/6/5
f 151/11/6 7/14/6 6/10/6
f 149/1/7 3/12/7 148/13/7
f 152/15/9 8/9/9 7/14/9
f 2/6/10 11/19/10 10/27/10
f 7/14/11 14/20/11 6/10/11
f 3/12/12 12/22/12 11/19/12
f 7/14/14 16/25/14 15/21/14
f 4/16/15 13/26/15 12/22/15
f 1/5/16 10/27/16 9/24/16
f 5/2/18 14/20/18 13/26/18
f 15/21/20 24/31/20 23/37/20
f 12/22/21 21/32/21 20/38/21
f 9/24/22 18/33/22 17/30/22
f 13/26/24 22/35/24 21/32/24
f 11/19/25 18/33/25 10/27/25
f 15/21/26 22/35/26 14/20/26
f 11/19/27 20/38/27 19/36/27
f 21/32/29 30/41/29 29/47/29
f 18/33/30 27/42/30 26/48/30
f 22/35/31 31/43/31 30/41/31
f 20/38/32 27/42/32 19/36/32
f 23/37/34 32/40/34 31/43/34
f 20/38/35 29/47/35 28/44/35
f 17/30/36 26/48/36 25/46/36
f 30/41/37 39/49/37 38/58/37
f 28/44/38 35/50/38 27/42/38
f 31/43/40 40/54/40 39/49/40
f 28/44/41 37/55/41 36/51/41
f 26/48/42 33/53/42 25/46/42
f 29/47/44 38/58/44 37/55/44
f 26/48/45 35/50/45 34/56/45
f 36/51/46 45/59/46 44/67/46
f 34/56/47 41/60/47 33/53/47
f 37/55/49 46/64/49 45/59/49
f 34/56/50 43/65/50 42/61/50
f 39/49/51 46/64/51 38/58/51
f 36/51/52 43/65/52 35/50/52
f 39/49/54 48/63/54 47/66/54
f 42/61/55 51/69/55 50/76/55
f 46/64/56 55/70/56 54/78/56
f 44/67/57 51/69/57 43/65/57
f 48/63/59 55/70/59 47/66/59
f 44/67/60 53/75/60 52/71/60
f 41/60/61 50/76/61 49/73/61
f 45/59/63 54/78/63 53/75/63
f 55/70/65 64/81/65 63/87/65
f 52/71/66 61/82/66 60/88/66
f 50/76/67 57/80/67 49/73/67
f 53/75/69 62/85/69 61/82/69
f 50/76/70 59/86/70 58/83/70
f 54/78/71 63/87/71 62/85/71
f 51/69/72 60/88/72 59/86/72
f 61/82/73 70/89/73 69/96/73
f 58/83/74 67/90/74 66/97/74
f 63/87/75 70/89/75 62/85/75
f 60/88/76 67/90/76 59/86/76
f 63/87/78 72/95/78 71/91/78
f 60/88/79 69/96/79 68/92/79
f 58/83/80 65/94/80 57/80/80
f 68/92/82 75/99/82 67/90/82
f 72/95/84 79/103/84 71/91/84
f 68/92/85 77/105/85 76/100/85
f 65/94/86 74/106/86 73/102/86
f 69/96/88 78/108/88 77/105/88
f 66/97/89 75/99/89 74/106/89
f 71/91/90 78/108/90 70/89/90
f 73/102/91 82/109/91 81/117/91
f 77/105/93 86/112/93 85/118/93
f 74/106/94 83/113/94 82/109/94
f 78/108/95 87/114/95 86/112/95
f 76/100/96 83/113/96 75/99/96
f 79/103/98 88/111/98 87/114/98
f 76/100/99 85/118/99 84/115/99
f 86/112/100 95/119/100 94/128/100
f 84/115/101 91/120/101 83/113/101
f 88/111/103 95/119/103 87/114/103
f 84/115/104 93/125/104 92/121/104
f 81/117/105 90/126/105 89/123/105
f 85/118/107 94/128/107 93/125/107
f 82/109/108 91/120/108 90/126/108
f 96/124/109 103/129/109 95/119/109
f 92/121/110 101/131/110 100/136/110
f 89/123/111 98/132/111 97/138/111
f 93/125/113 102/134/113 101/131/113
f 90/126/114 99/135/114 98/132/114
f 95/119/115 102/134/115 94/128/115
f 92/121/116 99/135/116 91/120/116
f 101/131/118 111/139/118 110/146/118
f 98/132/119 108/140/119 107/147/119
f 102/134/120 112/141/120 111/139/120
f 100/136/121 108/140/121 99/135/121
f 104/130/123 112/141/123 103/129/123
f 100/136/124 110/146/124 109/142/124
f 97/138/125 107/147/125 106/144/125
f 108/149/127 117/150/127 116/165/127
f 112/155/129 121/156/129 120/166/129
f 109/151/130 118/158/130 117/150/130
f 106/152/131 115/160/131 114/154/131
f 110/159/133 119/163/133 118/158/133
f 107/161/134 116/165/134 115/160/134
f 112/155/135 119/163/135 111/164/135
f 114/154/136 123/167/136 122/175/136
f 118/158/138 127/170/138 126/176/138
f 115/160/139 124/171/139 123/167/139
f 120/166/140 127/170/140 119/163/140
f 117/150/141 124/171/141 116/165/141
f 120/166/143 129/169/143 128/172/143
f 117/150/144 126/176/144 125/173/144
f 128/172/145 135/177/145 127/170/145
f 125/173/146 132/179/146 124/171/146
f 128/172/148 137/183/148 136/178/148
f 125/173/149 134/184/149 133/180/149
f 122/175/150 131/185/150 130/182/150
f 126/176/152 135/177/152 134/184/152
f 123/167/153 132/179/153 131/185/153
f 133/180/154 142/187/154 141/194/154
f 130/182/155 139/188/155 138/196/155
f 134/184/157 143/191/157 142/187/157
f 131/185/158 140/192/158 139/188/158
f 136/178/159 143/191/159 135/177/159
f 133/180/160 140/192/160 132/179/160
f 137/183/162 144/193/162 136/178/162
f 139/188/163 148/13/163 147/4/163
f 144/193/164 151/11/164 143/191/164
f 141/194/165 148/13/165 140/192/165
f 144/193/167 153/8/167 152/15/167
f 141/194/168 150/3/168 149/1/168
f 138/196/169 147/4/169 146/17/169
f 142/187/171 151/11/171 150/3/171
